<?xml version="1.0" encoding="UTF-8" standalone="no"?>
<!-- Created with Inkscape (http://www.inkscape.org/) -->

<svg
   width="210mm"
   height="297mm"
   viewBox="0 0 210 297"
   version="1.1"
   id="svg5"
   sodipodi:docname="seal logo.svg"
   inkscape:version="1.2.2 (732a01da63, 2022-12-09)"
   xmlns:inkscape="http://www.inkscape.org/namespaces/inkscape"
   xmlns:sodipodi="http://sodipodi.sourceforge.net/DTD/sodipodi-0.dtd"
   xmlns="http://www.w3.org/2000/svg"
   xmlns:svg="http://www.w3.org/2000/svg">
  <sodipodi:namedview
     id="namedview7"
     pagecolor="#ffffff"
     bordercolor="#666666"
     borderopacity="1.0"
     inkscape:showpageshadow="2"
     inkscape:pageopacity="0.0"
     inkscape:pagecheckerboard="0"
     inkscape:deskcolor="#d1d1d1"
     inkscape:document-units="mm"
     showgrid="false"
     inkscape:zoom="0.8298457"
     inkscape:cx="283.18518"
     inkscape:cy="673.01669"
     inkscape:window-width="2520"
     inkscape:window-height="1575"
     inkscape:window-x="0"
     inkscape:window-y="39"
     inkscape:window-maximized="1"
     inkscape:current-layer="layer1" />
  <defs
     id="defs2">
    <rect
       x="95.708131"
       y="128.52235"
       width="663.12062"
       height="533.23102"
       id="rect303" />
    <rect
       x="703.82903"
       y="749.26855"
       width="185.62524"
       height="76.377052"
       id="rect297" />
    <rect
       x="129.06755"
       y="592.16385"
       width="530.28877"
       height="126.16716"
       id="rect291" />
    <rect
       x="151.78731"
       y="614.40021"
       width="477.59827"
       height="103.4474"
       id="rect235" />
    <rect
       x="118.91617"
       y="102.4806"
       width="625.5184"
       height="724.13181"
       id="rect361" />
    <rect
       x="152.09218"
       y="506.25311"
       width="138.50094"
       height="144.63607"
       id="rect305" />
    <rect
       x="196.78847"
       y="514.69341"
       width="75.676762"
       height="111.25852"
       id="rect299" />
  </defs>
  <g
     inkscape:label="Ebene 1"
     inkscape:groupmode="layer"
     id="layer1">
    <text
       xml:space="preserve"
       transform="scale(0.26458333)"
       id="text297"
       style="line-height:1.25;font-family:sans-serif;font-size:40px;-inkscape-font-specification:sans-serif;white-space:pre;shape-inside:url(#rect299)" />
    <text
       xml:space="preserve"
       transform="scale(0.26458333)"
       id="text303"
       style="font-size:40px;line-height:1.25;font-family:sans-serif;-inkscape-font-specification:sans-serif;white-space:pre;shape-inside:url(#rect305)" />
    <text
       xml:space="preserve"
       transform="scale(0.26458333)"
       id="text359"
       style="font-size:40px;line-height:1.25;font-family:sans-serif;-inkscape-font-specification:sans-serif;white-space:pre;shape-inside:url(#rect361)" />
    <path
       style="opacity:0.918854;fill:#000080;fill-rule:evenodd;stroke:#000000;stroke-width:0.50008"
       id="path642"
       d="m 95.318353,142.86861 c 1.591539,1.17922 2.968679,2.56395 4.174069,4.10201 1.094508,1.44274 1.726978,3.10743 2.225488,4.80807 0.466,1.97353 0.78755,3.97749 1.11983,5.9753 0.2188,1.34171 0.41594,2.68641 0.55182,4.03825 0.049,0.54882 0.0886,1.09971 0.0769,1.65081 -0.0382,0.37187 -0.045,0.74557 -0.0649,1.11869 -0.0417,0.20206 -0.0317,0.43 -0.13491,0.61629 -0.0873,0.0888 -0.0971,-0.1849 -0.248,-0.0871 1.69673,-0.93776 3.39633,-1.87077 5.09019,-2.81328 0.0658,-0.0367 -0.13395,0.0702 -0.20535,0.0953 -0.0988,0.0348 -0.20091,0.0617 -0.30379,0.0832 -0.6293,0.13288 -1.26356,0.13844 -1.90454,0.15102 -2.05686,4.1e-4 -4.05956,-0.41628 -6.016738,-0.98568 -2.11824,-0.70102 -4.059824,-1.79583 -5.95501,-2.92488 -1.951268,-1.19317 -3.705891,-2.63383 -5.333647,-4.2038 -1.06874,-1.06676 -2.106216,-2.16175 -2.851813,-3.4622 -0.575369,-1.02162 -0.857446,-2.14383 -1.083441,-3.27451 -0.232374,-1.33258 -0.450391,-2.66747 -0.643946,-4.00585 -0.08982,-0.64724 -0.179066,-1.29524 -0.236984,-1.94596 0.0053,-0.31592 0.01189,-0.22795 -0.05402,-0.74112 -0.0053,0.0193 0.0026,0.0505 -0.0173,0.0579 -0.02496,0.009 -0.05125,-0.0147 -0.07714,-0.0224 -0.138172,-0.0381 -0.271418,-0.10341 -0.414834,-0.11323 -0.507623,-0.0344 -1.184432,0.18027 -1.678503,0.28923 -1.251583,0.32614 -2.491411,0.69391 -3.728543,1.06716 -1.451914,0.43687 -2.90717,0.863 -4.355147,1.31182 -1.329526,0.4221 -2.675125,0.79443 -4.022654,1.15931 -1.16944,0.30249 -2.357517,0.53321 -3.547747,0.74587 -1.165702,0.23053 -2.344111,0.23112 -3.527117,0.18527 -1.417028,-0.0678 -2.815065,-0.29015 -4.207597,-0.53759 -1.289917,-0.23884 -2.533495,-0.65432 -3.74981,-1.12275 -0.859468,-0.33687 -1.727584,-0.65203 -2.598135,-0.96119 -0.528102,-0.23006 -1.145442,-0.28118 -1.632192,-0.59172 -0.237754,-0.26541 -0.56967,-0.38745 -0.879778,-0.56035 -0.0428,-0.0305 -0.14059,-0.0787 -0.174675,-0.0938 0.0052,0.008 0.02364,0.0304 0.01564,0.0244 -0.170447,-0.12589 -0.334016,-0.1849 -0.532015,-0.26614 -2.908645,-1.24804 1.250902,-1.23775 -7.271906,3.52943 -1.06207,0.67301 -2.159871,1.29461 -3.237813,1.94453 -0.240063,0.13937 -0.479942,0.27897 -0.720191,0.41798 -0.261013,0.15104 -0.521524,0.3029 -0.783596,0.45224 -0.269436,0.15362 -1.082414,0.60657 -0.810898,0.45644 10.233772,-5.65863 6.059265,-3.34468 3.791856,-2.11909 -1.892379,1.03826 -3.842694,1.96734 -5.836799,2.81038 -2.116613,0.87825 -4.306659,1.57216 -6.527933,2.15927 -1.740453,0.45858 -3.513815,0.74777 -5.314692,0.83809 -1.68436,0.0556 -3.359459,-0.12974 -5.03036,-0.30315 -0.592172,-0.0668 -1.183813,-0.13918 -1.772891,-0.22795 -0.153212,-0.0278 -0.07683,0.0421 -0.268799,-0.0243 -0.189266,-0.0463 -0.09336,-0.0233 -0.274712,-0.0661 -0.03677,-0.009 -0.08193,-0.0502 -0.110303,-0.0261 -0.02528,0.0214 3.94e-4,0.0823 0.03264,0.0918 0.02175,0.005 0.01331,-0.17787 0.01176,-0.37069 0.01136,-1.30902 0.393624,-2.56833 0.785271,-3.81023 0.530865,-1.69101 1.295676,-3.29463 2.137363,-4.8605 0.786632,-1.34304 1.634816,-2.65285 2.530897,-3.93111 0.828766,-1.15303 1.715037,-2.26567 2.637375,-3.35085 0.801811,-0.94058 1.753962,-1.74637 2.761134,-2.47775 0.150413,-0.0986 0.298381,-0.20063 0.451257,-0.29563 0.222107,-0.13807 0.703836,-0.4123 0.938635,-0.54506 0.146784,-0.0829 0.588913,-0.32915 0.441417,-0.24729 -6.277279,3.48282 -7.999731,4.39975 -5.496288,3.06208 3.188643,-1.72243 6.39063,-3.42834 9.476087,-5.31691 2.242768,-1.26937 5.665556,-3.19163 -4.765543,2.63869 -0.171356,0.0956 0.348202,-0.18231 0.523766,-0.27072 0.587945,-0.29638 0.54034,-0.26501 1.187335,-0.55209 1.162523,-0.50356 2.370736,-0.88886 3.596584,-1.22027 0.584426,-0.14196 1.171457,-0.27549 1.767281,-0.3649 0.181835,-0.0287 0.365621,-0.0446 0.547457,-0.0728 0.01215,0.001 -0.01506,-0.0385 -0.0037,-0.0348 0.257486,0.082 0.172668,0.0693 0.420019,-0.0185 0.127064,-0.0441 0.254831,-0.0862 0.382618,-0.12848 0.02466,0.005 0.02222,-0.0167 0.02284,-0.0185 1.974281,-1.45914 3.948563,-2.91829 5.922844,-4.37745 -0.507375,-0.0944 -0.986588,-0.29227 -1.488242,-0.40481 -0.305098,-0.11957 -0.497428,-0.35178 -0.681807,-0.60196 -0.302119,-0.46935 -0.50622,-0.98999 -0.714438,-1.50211 -0.270734,-0.69768 -0.546871,-1.39377 -0.806395,-2.09543 -0.313788,-0.78354 -0.609777,-1.56934 -0.835213,-2.38077 -0.154197,-0.60739 -0.251633,-1.22649 -0.325099,-1.84715 -0.04136,-0.42096 -0.06377,-0.84343 -0.08826,-1.26554 -0.0193,-0.60328 -0.04795,-1.20626 -0.0667,-1.80961 -0.02072,-1.07684 -0.05092,-2.15278 -0.0502,-3.23001 -4.1e-5,-1.1203 0.08,-2.23755 0.162611,-3.35425 0.07026,-0.80477 0.08471,-1.61287 0.133969,-2.41907 -0.001,-1.04168 0.08371,-2.08086 0.138447,-3.12062 0.0629,-1.322301 0.158731,-2.642228 0.34504,-3.953986 0.207124,-1.190232 0.428011,-2.378202 0.634712,-3.568563 0.2607,-1.194588 0.315689,-2.415544 0.395956,-3.629869 0.03708,-0.716009 0.08294,-1.436192 0.02737,-2.1522 -0.05838,-0.587063 -0.163751,-1.171102 -0.26623,-1.752879 -0.133563,-0.774341 -0.252998,-1.550117 -0.340737,-2.330546 -0.0869,-0.833863 -0.198535,-1.665089 -0.283164,-2.499327 -0.137635,-0.947983 -0.122217,-1.905736 -0.08193,-2.859393 0.04059,-0.804134 0.13891,-1.604266 0.185156,-2.40789 0.03829,-0.772437 0.09301,-1.544153 0.160855,-2.314703 0.06426,-0.602048 0.150182,-1.201763 0.255204,-1.798479 0.0588,-0.374633 0.100713,-0.748894 0.132309,-1.126045 0.09172,-0.500305 0.259524,-0.982898 0.428653,-1.463011 0.144238,-0.414351 0.394206,-0.786966 0.628453,-1.15923 0.32128,-0.504193 0.693765,-0.975291 1.002224,-1.48685 0.369242,-0.60836 0.723466,-1.224603 1.098054,-1.830001 0.549992,-0.849414 1.147241,-1.669344 1.701965,-2.51576 0.391633,-0.637215 0.858516,-1.224863 1.306412,-1.825151 0.294567,-0.395492 0.602166,-0.783303 0.944303,-1.142203 0.328981,-0.368857 0.677798,-0.719022 1.033512,-1.064133 0.372195,-0.386533 0.736633,-0.769921 1.142981,-1.123748 0.492617,-0.447465 1.057571,-0.791668 1.632712,-1.129006 0.33732,-0.203447 0.685523,-0.389402 1.030734,-0.580023 0.116788,-0.06441 0.466628,-0.258804 0.349935,-0.194155 -6.244172,3.458886 -8.112798,4.462217 -5.625726,3.123695 17.931164,-9.953086 3.872434,-2.055915 7.438378,-4.149477 0.113011,-0.06626 0.882246,-0.510227 1.015257,-0.584871 0.15796,-0.08866 0.635053,-0.349332 0.47662,-0.261434 -2.015241,1.117955 -4.031373,2.234448 -6.047064,3.351682 0.678675,-0.397305 1.41402,-0.683392 2.15606,-0.949453 0.583639,-0.185659 1.18664,-0.299913 1.787177,-0.420941 0.878451,-0.144737 1.760968,-0.266579 2.649004,-0.340503 1.092522,-0.03313 2.135011,0.243296 3.145956,0.610896 1.227114,0.440541 2.373426,1.052805 3.536327,1.62496 0.809903,0.39775 1.623447,0.789318 2.442283,1.169929 0.432424,0.205371 0.85605,0.425142 1.299858,0.607119 0.508693,0.201206 1.032483,0.36597 1.553327,0.535693 0.724848,0.237115 1.415393,0.550984 2.086535,0.902442 0.581814,0.296675 1.127768,0.648005 1.626528,1.060154 0.543854,0.451313 1.007044,0.980049 1.464568,1.509431 0.568645,0.667365 0.972213,1.439913 1.36878,2.207816 0.374549,0.736105 0.710265,1.487795 1.007215,2.255567 0.272039,0.724834 0.473229,1.470508 0.640605,2.22316 0.207556,0.875956 0.499909,1.729943 0.739086,2.598088 0.191349,0.755187 0.346032,1.518593 0.500424,2.281368 0.120593,0.685541 0.130103,1.381834 0.155727,2.074758 0.0026,0.888678 0.03606,1.776492 0.07476,2.66437 0.04319,0.884984 0.06697,1.770717 0.03593,2.656334 -0.0092,0.841127 -0.126008,1.674654 -0.270494,2.502597 -0.187532,0.896952 -0.319827,1.800703 -0.422495,2.709638 -0.0527,0.669644 -0.08572,1.33651 -0.0026,2.004319 0.05891,0.692716 0.230895,1.361637 0.432534,2.026538 0.190134,0.770127 0.541766,1.479918 0.913185,2.181024 0.277983,0.56898 0.675039,1.063962 1.13074,1.510668 0.468037,0.443629 0.982925,0.840713 1.511338,1.215941 0.522574,0.37007 1.077695,0.694681 1.661213,0.967551 0.463018,0.223172 0.969466,0.341815 1.468556,0.465525 0.385803,0.07794 0.779675,0.109608 1.170959,0.151965 0.408574,0.01293 0.815245,0.05442 1.223423,0.07406 0.80905,-0.02869 1.615539,0.02301 2.421036,0.09009 0.879345,0.07872 1.734876,0.289803 2.589786,0.491609 0.835467,0.22595 1.677407,0.425675 2.527443,0.594121 0.884219,0.171392 1.763115,0.366877 2.646291,0.542638 0.9109,0.167683 1.821945,0.336386 2.737218,0.480855 0.801151,0.130483 1.604356,0.248219 2.405926,0.376149 0.80819,0.11684 1.611048,0.26381 2.408748,0.43406 0.71452,0.14641 1.4437,0.19596 2.16679,0.28618 0.97293,0.0999 1.93028,0.28116 2.87436,0.52446 0.88867,0.21442 1.764,0.47364 2.62097,0.78443 0.91661,0.33561 1.84501,0.63958 2.78864,0.89728 1.27282,0.28648 2.52386,0.64844 3.77295,1.01636 1.07762,0.30764 2.13815,0.66611 3.22519,0.94234 0.90634,0.20395 1.82775,0.33294 2.7482,0.46119 0.90468,0.1224 1.81428,0.1638 2.7266,0.17564 0.94881,-0.0301 1.89491,-0.0481 2.84294,0.005 1.22532,0.10508 2.45106,0.20353 3.67416,0.33123 0.95993,0.10586 1.92367,0.16547 2.88591,0.24579 0.87823,0.0366 1.75527,0.0828 2.63139,0.15251 1.00677,0.0459 2.01319,0.11697 3.02095,0.13548 0.95034,0.0318 1.89899,-0.0245 2.84812,-0.0513 0.99838,-0.0308 1.99704,-0.009 2.99486,0.0218 0.65726,0.0279 1.3022,0.0644 1.95225,-0.0445 0.50535,-0.14011 0.98422,-0.35987 1.43896,-0.61171 6.00387,-3.32488 4.09588,-2.12235 6.38472,-3.57703 0.56727,-0.37339 1.15645,-0.71697 1.71236,-1.10595 0.67152,-0.49333 1.31649,-1.0203 1.93429,-1.57426 0.63412,-0.611195 1.26313,-1.230301 1.83509,-1.896133 0.52069,-0.57967 1.02189,-1.174437 1.54431,-1.752685 0.38462,-0.453543 0.83926,-0.840197 1.29316,-1.227134 0.43989,-0.386757 0.88598,-0.766056 1.34569,-1.131098 0.39356,-0.324611 0.79384,-0.641622 1.17046,-0.984381 0.63514,-0.57693 1.17067,-1.244157 1.70571,-1.905542 0.49444,-0.643315 1.02187,-1.262835 1.51797,-1.904793 0.42209,-0.584607 0.85614,-1.164846 1.2356,-1.776003 0.47801,-0.81693 0.98526,-1.618325 1.44521,-2.444768 0.35315,-0.693686 0.72721,-1.37698 1.09071,-2.065832 0.20907,-0.423956 0.49521,-0.803721 0.78432,-1.17993 0.11385,-0.176007 0.28634,-0.287968 0.43623,-0.431777 1.83121,-1.74462 0.9386,-0.882269 -6.48008,3.430713 -0.0872,0.05067 0.17679,0.09953 0.25462,0.162694 0.47266,0.384197 0.86168,0.866952 1.25405,1.322485 0.76102,0.893696 1.41896,1.859114 2.00252,2.866425 0.62286,1.14149 1.02907,2.377362 1.3427,3.625746 0.26578,1.216626 0.16252,2.452679 -0.2017,3.637107 -0.33676,0.894238 -0.91102,1.662453 -1.53899,2.386358 -0.65578,0.709882 -1.34832,1.395929 -2.16083,1.940648 -2.33,1.45293 -5.98179,3.34908 5.23439,-2.844774 -0.12139,0.06553 -0.089,0.02314 -0.0343,0.135485 0.14514,0.298386 0.69011,0.701648 0.41821,0.902692 -4.34783,3.214797 -8.32277,3.241577 -5.60385,3.186817 0.58994,0.0296 1.16079,0.15511 1.75035,0.0879 0.69004,-0.10314 1.36307,-0.28368 2.04141,-0.43893 1.11549,-0.21851 2.19669,-0.54948 3.26324,-0.92711 1.57712,-0.588719 3.05269,-1.387942 4.53431,-2.164364 1.57068,-0.856172 3.21363,-1.574856 4.8623,-2.278947 0.96832,-0.408588 1.93686,-0.816905 2.89702,-1.242903 0.62918,-0.295206 1.26254,-0.57684 1.92741,-0.789736 0.3876,-0.06178 0.80122,-0.312267 1.2043,-0.280535 0.0656,0.0078 0.13208,0.009 0.0811,-0.0601 0.0428,-0.01848 0.0816,-0.05274 0.12838,-0.05403 0.30647,-0.009 0.72204,0.151034 1.03952,0.198044 0.27319,0.08983 0.544,0.199893 0.79,0.345409 0.47621,0.312836 0.8897,0.708524 1.30045,1.095785 0.35287,0.326304 0.68703,0.670885 1.02112,1.01482 0.4472,0.486077 0.86808,0.994527 1.28248,1.506571 0.16888,0.21384 0.3384,0.427472 0.4976,0.648137 0.0725,0.101594 -0.12773,-0.245378 -0.25093,-0.280355 -0.0765,-0.02172 -0.0808,0.131776 -0.12126,0.197722 -0.49638,0.714547 -0.94184,1.459005 -1.38904,2.202282 -0.82766,1.4757 -1.54823,2.99764 -2.42825,4.44748 -0.98712,1.64657 -2.52345,2.80376 -4.10467,3.89219 -2.18974,1.38179 -6.37583,3.69595 3.96365,-2.13413 0.2525,-0.14233 -0.51402,0.26968 -0.77413,0.39886 -0.5708,0.28344 -0.91943,0.43462 -1.49925,0.69657 -1.24838,0.55809 -2.51808,1.06826 -3.82386,1.48881 -1.17197,0.36987 -2.38828,0.58532 -3.60173,0.78591 -1.06234,0.19144 -2.11776,0.19331 -3.18811,0.0823 -1.23432,-0.16917 -2.4777,-0.23814 -3.7228,-0.27535 -0.86735,-0.001 -1.73412,-0.0699 -2.60139,-0.0536 -0.606,0.0246 -1.21148,0.0341 -1.8176,0.009 -0.26776,-0.0149 -0.53408,0.0116 -0.80136,-0.009 -0.20633,4.8e-4 -0.40492,-0.0768 -0.60818,-0.0909 -0.31571,-0.11826 -0.61912,0.004 -0.93638,0.0622 -8.88474,4.73413 -4.90175,1.43111 -6.93598,4.43225 -0.51692,0.68663 -1.04197,1.3658 -1.53725,2.06734 -0.54219,0.85454 -1.1385,1.66573 -1.8416,2.40473 -0.90495,0.90126 -1.95008,1.65561 -2.9953,2.39841 -0.98253,0.65139 -1.90883,1.37084 -2.80508,2.12657 -0.60665,0.51607 -1.21459,1.03181 -1.83518,1.53252 -1.03733,0.83702 -1.00397,0.35561 -0.88677,1.10345 0,0 0.56338,-0.20779 0.56338,-0.20779 v 0 c 1.3767,-0.64483 2.77506,-1.24878 4.13013,-1.93444 1.66853,-0.84426 3.22777,-1.8999 4.66471,-3.06777 0.93918,-0.73384 1.90724,-1.43009 2.88502,-2.11582 1.05429,-0.77587 2.10143,-1.57583 2.96666,-2.55028 0.65979,-0.78881 1.24063,-1.62913 1.80959,-2.47988 0.47467,-0.68528 0.97815,-1.35113 1.44391,-2.04216 0.14399,-0.21627 0.26652,-0.45539 0.47767,-0.61844 0.0725,-0.0558 0.32499,-0.17397 0.24393,-0.1301 -2.02241,1.09215 -4.05031,2.17496 -6.07544,3.26243 0.15402,-0.0381 0.54303,-0.0767 0.65608,-0.14992 0.0363,-0.0236 0.0322,-0.0796 0.0593,-0.11284 0.005,-0.008 0.0193,0.001 0.0289,0.004 0.19947,0.053 0.41943,0.0333 0.61815,0.096 0.24455,0.0533 0.4803,0.13475 0.73487,0.13604 0.58324,0.038 1.16463,0.10018 1.74976,0.0892 0.87252,0.0129 1.74559,-0.0149 2.61797,0.0149 1.22012,0.0278 2.44102,0.0729 3.65144,0.23437 1.08502,0.15918 2.15965,0.33858 3.25252,0.11827 1.24361,-0.14584 2.47267,-0.40825 3.68859,-0.69397 1.33291,-0.40992 2.64514,-0.86504 3.9095,-1.44652 3.87674,-1.69279 7.61364,-3.71093 11.09415,-6.06788 1.57968,-1.17133 3.05234,-2.44164 3.99061,-4.16642 0.85577,-1.47608 1.59798,-3.008519 2.49604,-4.461617 0.47593,-0.746693 0.96921,-1.482439 1.48113,-2.206965 0.19591,-0.261108 0.27033,-0.446886 -0.0248,-0.744574 -0.18761,-0.20399 -0.3683,-0.413797 -0.54879,-0.623591 -0.43391,-0.513362 -0.86004,-1.032709 -1.29419,-1.545877 -0.3307,-0.37524 -0.69602,-0.719214 -1.05616,-1.068293 -0.45562,-0.400794 -0.90075,-0.8122 -1.35419,-1.21523 -0.28655,-0.192422 -0.56969,-0.373275 -0.90124,-0.493004 -0.41808,-0.199454 -0.90938,-0.158247 -1.30584,-0.402992 -0.0733,-0.08531 -0.17044,-0.01474 -0.26439,0.01848 -0.50544,0.188867 -1.03892,0.30256 -1.55294,0.467321 -0.73607,0.247252 -1.47684,0.481786 -2.1558,0.858499 -0.98343,0.476783 -1.9888,0.909116 -2.99397,1.341836 -1.65888,0.717494 -3.33323,1.409565 -4.92281,2.263217 -1.47483,0.758274 -2.91789,1.580634 -4.45875,2.213169 -1.05201,0.405396 -2.12397,0.77743 -3.23745,0.996078 -0.70705,0.197321 -1.41297,0.401595 -2.1265,0.574875 -0.10765,0.02327 -0.21725,0.03994 -0.32316,0.06993 -0.0821,0.02327 -0.15498,0.07755 -0.23973,0.08957 -0.22002,0.03128 -0.68885,-0.197838 -0.91931,-0.197024 -2.50552,-0.806086 -1.38528,-0.513711 -6.70647,3.066632 -0.31015,0.20867 0.13182,0.79361 0.43993,1.00501 0.0324,0.0222 0.093,-0.0927 0.11082,-0.0437 2.50607,-1.37912 5.30995,-2.595847 7.62966,-4.354297 0.75536,-0.640032 1.46012,-1.334972 2.08061,-2.09812 0.6163,-0.808981 1.14305,-1.678635 1.39645,-2.66074 0.26718,-1.301741 0.3294,-2.628621 0.004,-3.929483 -0.34483,-1.30691 -0.76794,-2.609387 -1.40712,-3.813915 -0.6156,-1.040606 -1.30421,-2.036 -2.09375,-2.964128 -2.46659,-2.872254 -3.0661,-4.342246 -8.52099,1.619191 -0.14824,0.164347 -0.26238,0.345072 -0.37756,0.531949 -0.26101,0.408135 -0.506,0.825267 -0.67608,1.277375 -0.24115,0.637396 -0.45743,1.284976 -0.79117,1.885508 -0.41424,0.800115 -0.85922,1.586309 -1.35879,2.340809 -0.40883,0.580213 -0.8033,1.170081 -1.25054,1.724559 -0.49274,0.622906 -0.96481,1.261142 -1.48088,1.866921 -0.54807,0.639089 -1.1031,1.274584 -1.76025,1.815297 -0.3626,0.309462 -0.72081,0.623617 -1.08461,0.931812 -0.41861,0.371143 -0.84249,0.737413 -1.24375,1.126044 -0.38625,0.387442 -0.71978,0.817526 -1.09174,1.217441 -0.50484,0.583276 -1.0035,1.171516 -1.52697,1.739707 -0.59427,0.6302 -1.19382,1.2591 -1.86137,1.81952 -0.64195,0.53237 -1.29138,1.05938 -1.99697,1.51379 -0.55907,0.35744 -1.11263,0.72309 -1.68282,1.0643 -2.15675,1.25227 -0.21943,0.12395 4.95966,-2.73376 0.71672,-0.39547 -2.04768,1.17038 -1.34011,0.72508 -0.63548,0.26678 -1.03164,0.26584 -1.71475,0.16361 -0.89146,-0.10159 -1.77134,-0.29622 -2.67211,-0.3159 -0.9103,-0.004 -1.81988,-0.0149 -2.73056,-4.2e-4 -0.94346,-0.0224 -1.88469,-0.0853 -2.82002,-0.21012 -0.87309,-0.0894 -1.74711,-0.16953 -2.62557,-0.18434 -0.96617,-0.0377 -1.92974,-0.12357 -2.89251,-0.20783 -1.22707,-0.11013 -2.45315,-0.22992 -3.67998,-0.34221 -0.94954,-0.099 -1.89814,-0.14696 -2.85302,-0.0801 -0.89332,0.023 -1.78612,0.0191 -2.67483,-0.0858 -0.90483,-0.10702 -1.80692,-0.23635 -2.70207,-0.40296 -1.09746,-0.22315 -2.16421,-0.55069 -3.23114,-0.88115 -1.24876,-0.371424 -2.50141,-0.736582 -3.76818,-1.047169 -0.92824,-0.234469 -1.83899,-0.525461 -2.73743,-0.849477 -0.87637,-0.315602 -1.7519,-0.628386 -2.66034,-0.851597 -0.96979,-0.234546 -1.93546,-0.489075 -2.93267,-0.593513 -0.70261,-0.09203 -1.40382,-0.189398 -2.10869,-0.264624 -0.81617,-0.145102 -1.62911,-0.305313 -2.44627,-0.44518 -0.80662,-0.120854 -1.60908,-0.265891 -2.41909,-0.365378 -0.909,-0.141586 -1.81343,-0.306102 -2.71973,-0.4621 -0.883588,-0.16122 -1.755218,-0.376391 -2.639118,-0.537119 -0.838945,-0.173797 -1.681109,-0.333155 -2.505046,-0.567314 -0.87426,-0.23147 -1.758215,-0.451966 -2.65732,-0.570854 -0.803569,-0.110384 -1.618193,-0.180466 -2.429754,-0.183245 -0.390306,0.01926 -0.780216,-0.01667 -1.169044,-0.05028 -0.37439,-0.01163 -0.747314,-0.04317 -1.121058,-0.0654 -0.471841,-0.0729 -0.950961,-0.154731 -1.397838,-0.318678 -0.559783,-0.223327 -1.091287,-0.497412 -1.584896,-0.837702 -0.50366,-0.34515 -0.988103,-0.717158 -1.443077,-1.120008 -0.410661,-0.389329 -0.767061,-0.814474 -1.023792,-1.314769 -0.359122,-0.649274 -0.658858,-1.324657 -0.845836,-2.039774 -0.166319,-0.631566 -0.2937,-1.27037 -0.34767,-1.920794 -0.02959,-0.625724 -0.01677,-1.252869 0.05468,-1.876085 0.09351,-0.8942 0.253125,-1.779364 0.421082,-2.663145 0.141171,-0.862687 0.234157,-1.731113 0.240484,-2.605381 -0.001,-0.894678 -0.03672,-1.787991 -0.06763,-2.682122 -0.02536,-0.888099 -0.07053,-1.775641 -0.06366,-2.664368 -0.01559,-0.735938 -0.05363,-1.47234 -0.200846,-2.196765 -0.176936,-0.770296 -0.336889,-1.544622 -0.552925,-2.306416 -0.25356,-0.855727 -0.502947,-1.713378 -0.701191,-2.582707 -0.197649,-0.775084 -0.399843,-1.551557 -0.699606,-2.297472 -0.301177,-0.79252 -0.656481,-1.564808 -1.053339,-2.31772 -0.416842,-0.819282 -0.864486,-1.630402 -1.433316,-2.363621 -0.476425,-0.566807 -0.982186,-1.111644 -1.527387,-1.618724 -0.538226,-0.450277 -1.085105,-0.870126 -1.723239,-1.188085 -0.697744,-0.36151 -1.395303,-0.733347 -2.142763,-0.993486 -0.499909,-0.189472 -1.012446,-0.345851 -1.513834,-0.532011 -0.443523,-0.162875 -0.877034,-0.347813 -1.304707,-0.546114 -0.823435,-0.383276 -1.651466,-0.757093 -2.477938,-1.134317 -1.187945,-0.563494 -2.347545,-1.184772 -3.56091,-1.696257 -1.071981,-0.399267 -2.1443,-0.780915 -3.306309,-0.842567 -0.904349,-0.04183 -1.790235,0.125675 -2.684976,0.23889 -0.625801,0.0657 -1.242864,0.199949 -1.853804,0.343816 -0.793428,0.182124 -1.548834,0.495475 -2.281472,0.835644 -2.291461,1.269061 -4.584163,2.536029 -6.874377,3.807144 -0.498076,0.276444 -0.985488,0.571045 -1.478402,0.855781 -0.169869,0.09809 -0.68254,0.387459 -0.510596,0.292733 1.994129,-1.098708 3.984831,-2.203134 5.977244,-3.304709 -2.904458,1.599049 -5.856548,3.124416 -8.687455,4.841403 -0.575181,0.373133 -1.109501,0.798978 -1.601466,1.269689 -0.386837,0.379427 -0.749094,0.781433 -1.141584,1.155953 -0.347155,0.3614 -0.688537,0.728258 -1.014602,1.107351 -0.311945,0.386867 -0.610999,0.782747 -0.9009,1.185105 -0.447167,0.598568 -0.856269,1.221198 -1.260028,1.847305 -0.572642,0.844158 -1.155686,1.682339 -1.701942,2.542526 -0.374784,0.606804 -0.73273,1.223177 -1.121968,1.821671 -0.352165,0.500565 -0.711052,0.998039 -1.015591,1.527329 -0.227532,0.41176 -0.425878,0.83655 -0.548154,1.289474 -0.165411,0.528883 -0.327719,1.061967 -0.375891,1.614911 -0.03891,0.364842 -0.09407,0.72848 -0.144661,1.092026 -0.07131,0.609507 -0.158268,1.217403 -0.205317,1.829297 -0.04928,0.772627 -0.103976,1.544926 -0.153367,2.317535 -0.06286,0.805233 -0.131066,1.610945 -0.148019,2.418517 -0.01976,0.987431 -0.01936,1.97874 0.106023,2.9606 0.105205,0.829817 0.194793,1.661405 0.305889,2.490563 0.09712,0.792463 0.172088,1.587084 0.324717,2.372257 0.08206,0.562466 0.191119,1.122541 0.221841,1.69063 0.01718,0.690622 0.01428,1.380767 -0.02573,2.070898 -0.04055,1.184726 -0.16267,2.362847 -0.392596,3.528624 -0.225794,1.197147 -0.483675,2.390468 -0.625115,3.600545 -0.16429,1.3307 -0.257259,2.66712 -0.335375,4.00484 -0.07101,1.04922 -0.137173,2.09869 -0.180639,3.14932 -0.03013,0.80073 -0.07181,1.60077 -0.123445,2.40048 -0.06723,1.12571 -0.08846,2.25324 -0.110013,3.38045 3.16e-4,1.08636 0.01136,2.17261 0.01971,3.25888 0.003,0.61883 0.0096,1.23716 0.04315,1.8553 0.0282,0.43815 0.04319,0.87858 0.115097,1.31286 0.102471,0.64552 0.247821,1.28266 0.415339,1.91574 0.249309,0.82322 0.522474,1.6364 0.857201,2.43198 0.272444,0.70665 0.511222,1.42477 0.801054,2.1253 0.236494,0.55478 0.443882,1.12897 0.768773,1.64316 0.234012,0.35763 0.510875,0.69845 0.888585,0.9246 0.464314,0.30571 1.066725,0.32034 1.583982,0.52538 2.124476,-1.41154 8.874401,-4.83167 6.361872,-4.25054 -0.134181,0.0463 -0.268059,0.0931 -0.40257,0.13845 -0.0813,0.0273 -0.199,0.009 -0.244808,0.0787 -0.109127,0.16639 0.08092,0.12975 -0.04418,0.0998 -0.202252,0.008 -0.401562,0.0535 -0.602486,0.0729 -0.62469,0.0862 -1.248136,0.16806 -1.857415,0.33371 -1.264852,0.291 -2.501112,0.68487 -3.703255,1.1611 -3.500962,1.33713 -6.64382,3.40591 -9.862863,5.26976 -2.212618,1.3395 -5.5562,3.11394 4.88782,-2.65302 0.15657,-0.0865 -0.31216,0.17453 -0.468632,0.26116 -0.390104,0.21596 -0.604504,0.3318 -1.000793,0.54761 -3.122317,1.6588 -6.343261,3.21219 -9.208285,5.26481 -0.971421,0.79031 -1.891308,1.6388 -2.666997,2.61225 -0.905042,1.10471 -1.791868,2.22394 -2.589734,3.40346 -0.880521,1.30766 -1.762552,2.62234 -2.495777,4.01246 -0.7976896,1.60752 -1.5382626,3.23906 -2.0516186,4.95453 -0.418217,1.33365 -0.815224,2.68941 -0.776669,4.09634 0.04607,0.40684 0.08912,0.80337 0.41353,1.10872 0.0749,0.0706 0.288827,0.0116 0.374084,0.0733 0.129124,0.0116 0.184036,0.11452 0.319243,0.10069 0.625034,0.0565 1.250119,0.11232 1.8746026,0.17417 1.705238,0.1712 3.416623,0.32334 5.131492,0.35488 0.750226,-0.008 1.045513,0.004 1.787019,-0.0618 1.234482,-0.11065 2.443826,-0.40583 3.651624,-0.65993 2.26004,-0.56062 4.482882,-1.25039 6.639284,-2.11188 1.995464,-0.80052 3.9515,-1.67975 5.831051,-2.71016 3.805594,-2.03468 7.590645,-4.10833 11.302723,-6.29653 1.115039,-0.66235 2.243164,-1.30511 3.339231,-1.99615 -3.257899,1.8057 -5.891125,5.80544 -6.328855,3.13097 -0.0095,-0.0574 0.177802,0.11866 0.170411,0.061 0.08428,0.0313 0.313124,0.16935 0.393944,0.15547 0.02084,-0.004 -0.0096,-0.0433 10e-4,-0.0608 0.0059,-0.009 0.01308,0.0185 0.01967,0.0275 0.06736,0.0578 0.153251,0.0907 0.230794,0.13437 0.394318,0.20336 0.767579,0.42724 1.229383,0.45266 0.602231,0.13121 1.174228,0.37168 1.768438,0.53311 0.874801,0.28544 1.747242,0.58197 2.597233,0.93028 1.243326,0.47239 2.495786,0.92775 3.796804,1.23562 1.403385,0.31355 2.835391,0.51916 4.273031,0.61576 1.217545,0.0929 2.444117,0.18532 3.6475,-0.0746 1.21998,-0.18591 2.426696,-0.44536 3.628115,-0.71968 1.380259,-0.35941 2.745143,-0.7692 4.107464,-1.18624 1.445336,-0.44709 2.891623,-0.89072 4.346364,-1.3091 1.227887,-0.37835 2.459921,-0.74471 3.696407,-1.09644 0.532402,-0.13789 0.605906,-0.15991 1.140408,-0.28696 0.148396,-0.0354 0.303343,-0.0498 0.446033,-0.1025 0.08136,-0.03 0.130498,-0.12421 0.215692,-0.14158 0.124026,-0.0252 0.20778,0.23378 0.322218,0.1934 0.07225,-0.63654 0.04306,-0.74597 0.129838,-0.40799 0.122705,0.63426 0.227262,1.27168 0.338292,1.90789 0.237948,1.33779 0.453944,2.67898 0.706527,4.01426 0.295748,1.16826 0.596251,2.34829 1.292529,3.36797 0.276569,0.43932 0.442374,0.72731 0.76298,1.13879 0.673982,0.86503 1.532564,1.58504 2.288847,2.37947 0.545636,0.52722 1.157909,1.13235 1.731323,1.63174 1.136881,0.99006 2.383841,1.86418 3.654246,2.68781 1.905964,1.1886 3.896223,2.27188 6.023572,3.0556 1.965058,0.62547 3.983284,1.07133 6.059642,1.16327 3.68884,0.13696 3.20036,-0.29919 7.81636,-2.983 0.15055,-0.089 -0.0365,-0.18565 -0.0235,-0.31145 -0.0361,-0.21696 0.0527,-0.4419 0.0313,-0.66027 0.0155,-0.38265 0.0604,-0.7655 0.0361,-1.14844 -0.0402,-0.55534 -0.072,-1.11119 -0.17294,-1.66064 -0.18818,-1.34318 -0.39915,-2.68243 -0.6653,-4.01385 -0.37287,-2.00544 -0.70563,-4.02007 -1.199,-6.00263 -0.19165,-0.64074 -0.31222,-1.10921 -0.57068,-1.72452 -0.48023,-1.14318 -1.21147,-2.16561 -1.96992,-3.15202 -0.24051,-0.27847 -0.46839,-0.56744 -0.72157,-0.83539 -1.16836,-1.23654 -2.55611,-2.31427 -4.087468,-3.105 0,0 -4.043962,2.51639 -4.043962,2.51639 z" />
    <text
       xml:space="preserve"
       transform="matrix(0.47881031,0,0,0.85332465,-68.918571,-362.36258)"
       id="text233"
       style="font-size:48px;line-height:1.25;font-family:sans-serif;-inkscape-font-specification:sans-serif;white-space:pre;shape-inside:url(#rect235);shape-padding:6.8363"><tspan
         x="158.62305"
         y="665.02818"
         id="tspan332"><tspan
           style="font-family:'Snap ITC';-inkscape-font-specification:'Snap ITC'"
           id="tspan330">little Seal Poll</tspan></tspan></text>
    <text
       xml:space="preserve"
       transform="scale(0.26458333)"
       id="text289"
       style="line-height:1.25;font-family:sans-serif;font-size:40px;-inkscape-font-specification:sans-serif;white-space:pre;shape-inside:url(#rect291)" />
    <text
       xml:space="preserve"
       transform="scale(0.26458333)"
       id="text295"
       style="line-height:1.25;font-family:sans-serif;font-size:40px;-inkscape-font-specification:sans-serif;white-space:pre;shape-inside:url(#rect297)" />
    <text
       xml:space="preserve"
       transform="scale(0.26458333)"
       id="text301"
       style="line-height:1.25;font-family:sans-serif;font-size:40px;-inkscape-font-specification:sans-serif;white-space:pre;shape-inside:url(#rect303)" />
  </g>
</svg>
